<?xml version="1.0" encoding="UTF-8" standalone="no"?>
<svg
   xmlns:dc="http://purl.org/dc/elements/1.1/"
   xmlns:cc="http://creativecommons.org/ns#"
   xmlns:rdf="http://www.w3.org/1999/02/22-rdf-syntax-ns#"
   xmlns:svg="http://www.w3.org/2000/svg"
   xmlns="http://www.w3.org/2000/svg"
   viewBox="0 0 823.75 823.75"
   height="823.75"
   width="823.75"
   xml:space="preserve"
   version="1.1"
   id="svg2"><metadata
     id="metadata8"><rdf:RDF><cc:Work
         rdf:about=""><dc:format>image/svg+xml</dc:format><dc:type
           rdf:resource="http://purl.org/dc/dcmitype/StillImage" /></cc:Work></rdf:RDF></metadata><defs
     id="defs6" /><g
     transform="matrix(1.25,0,0,-1.25,0,823.75)"
     id="g10"><g
       transform="scale(0.1,0.1)"
       id="g12"><path
         id="path14"
         style="fill:#ffffff;fill-opacity:1;fill-rule:evenodd;stroke:none"
         d="m 3759.26,6068.84 c 177.98,-29.75 350.22,-76.36 515.2,-137.88 l 319.8,409.81 684.01,-394.92 -195.19,-482.33 c 137.2,-113.45 263.45,-239.69 376.92,-376.87 l 482.3,195.17 394.91,-684 -409.57,-319.62 c 61.56,-165.02 108.06,-337.38 137.83,-515.41 l 514.79,-72.05 0,-789.83 -514.9,-72.07 c -29.75,-177.99 -76.34,-350.27 -137.88,-515.27 l 409.73,-319.73 -394.91,-684.02 -482.35,195.2 c -113.46,-137.18 -239.7,-263.39 -376.89,-376.84 L 5278.27,645.801 4594.26,250.887 4274.54,660.586 C 4109.55,599.066 3937.25,552.559 3759.26,522.805 l -72.08,-514.96906 -789.82,0 -72.08,514.96906 c -177.98,29.754 -350.22,76.367 -515.2,137.886 l -319.8,-409.804 -684.01,394.914 195.19,482.329 c -137.2,113.46 -263.45,239.69 -376.92,376.87 l -482.294,-195.18 -394.918,684.02 409.567,319.62 c -61.551,165.02 -108.051,337.37 -137.829,515.4 l -514.78866,72.05 0,789.83 514.90266,72.07 c 29.758,177.99 76.347,350.27 137.875,515.26 l -409.727,319.75 394.918,684 482.344,-195.19 c 113.46,137.18 239.7,263.39 376.89,376.84 l -195.21,482.38 684.01,394.92 319.72,-409.7 c 164.98,61.52 337.29,108.02 515.28,137.77 l 72.08,514.98 789.82,0 72.08,-514.98 z m -466.99,-492.57 c 1259.47,0 2280.45,-1020.98 2280.45,-2280.45 0,-1259.46 -1020.98,-2280.44 -2280.45,-2280.44 -1259.46,0 -2280.45,1020.98 -2280.45,2280.44 0,1259.47 1020.99,2280.45 2280.45,2280.45" /></g></g></svg>