<svg xmlns="http://www.w3.org/2000/svg">
    <svg viewBox="0 0 327 327" preserveAspectRatio="xMidYMid meet" id="bacadece">
        <defs id="SvgjsDefs1001"></defs>
        <g id="SvgjsG1007" featurekey="root" fill="white"></g>
        <g id="SvgjsG1008" featurekey="container1" fill="white"
           transform="matrix(1.4288706998185456,0,0,1.4288706998185456,20,20)">
            <defs xmlns="http://www.w3.org/2000/svg"></defs>
            <path xmlns="http://www.w3.org/2000/svg"
                  d="M100.254,0C44.974,0,0,44.974,0,100.254s44.974,100.254,100.254,100.254c55.28,0,100.254-44.974,100.254-100.254  S155.534,0,100.254,0z M100.254,195.508C47.731,195.508,5,152.777,5,100.254S47.731,5,100.254,5  c52.523,0,95.254,42.73,95.254,95.254S152.777,195.508,100.254,195.508z"></path>
        </g>
        <g id="SvgjsG1009" featurekey="symbol1" fill="white" transform="matrix(2.1875,0,0,2.1875,120.25,60.5)">
            <path fill="white" fill-rule="evenodd"
                  d="M258,30 L256.001743,30 C254.896211,30 254,29.1103261 254,28.008845 L254,9.991155 C254,8.89147046 254.898212,8 255.990795,8 L272.009205,8 C273.108691,8 274,8.8938998 274,10.0048815 L274,13 L279.508995,13 C279.780169,13 280.136592,13.1707396 280.314138,13.3926728 L285.685862,20.1073272 C285.859356,20.3241944 286,20.7162701 286,20.9973856 L286,28.0084887 C286,29.10837 285.110738,30 283.998257,30 L282,30 C282,32.209139 280.209139,34 278,34 C275.790861,34 274,32.209139 274,30 L266,30 C266,32.209139 264.209139,34 262,34 C259.790861,34 258,32.209139 258,30 Z M265.464871,28 L271.503607,28 C271.773819,28 272,27.7760485 272,27.4997903 L272,10.5002097 C272,10.2275865 271.777757,10 271.503607,10 L256.496393,10 C256.226181,10 256,10.2239515 256,10.5002097 L256,27.4997903 C256,27.7724135 256.222243,28 256.496393,28 L258.535129,28 C259.226748,26.8043973 260.519435,26 262,26 C263.480565,26 264.773252,26.8043973 265.464871,28 Z M281.464871,28 L284,28 L284,22 L274,22 L274,28 L274.535129,28 C275.226748,26.8043973 276.519435,26 278,26 C279.480565,26 280.773252,26.8043973 281.464871,28 Z M274,15 L274,21 L284,21 L279,15 L274,15 Z M278,33 C279.656854,33 281,31.6568542 281,30 C281,28.3431458 279.656854,27 278,27 C276.343146,27 275,28.3431458 275,30 C275,31.6568542 276.343146,33 278,33 Z M278,31 C277.447715,31 277,30.5522847 277,30 C277,29.4477153 277.447715,29 278,29 C278.552285,29 279,29.4477153 279,30 C279,30.5522847 278.552285,31 278,31 Z M262,33 C263.656854,33 265,31.6568542 265,30 C265,28.3431458 263.656854,27 262,27 C260.343146,27 259,28.3431458 259,30 C259,31.6568542 260.343146,33 262,33 Z M262,31 C261.447715,31 261,30.5522847 261,30 C261,29.4477153 261.447715,29 262,29 C262.552285,29 263,29.4477153 263,30 C263,30.5522847 262.552285,31 262,31 Z"
                  transform="translate(-250)"></path>
        </g>
        <g id="SvgjsG1010" featurekey="text1" fill="white"
           transform="matrix(4.9103143843288635,0,0,4.9103143843288635,73.44663661380581,133.08295650186238)">
            <path d="M0.52 20 l0 -0.96 l1.64 0 l0 -11.3 l-1.64 0 l0 -0.96 l7.08 0 l0 0.96 l-1.64 0 l0 11.3 l1.64 0 l0 0.96 l-7.08 0 z M8.64 20 l0 -0.96 l1.64 0 l0 -11.3 l-1.64 0 l0 -0.96 l7.18 0 c5.48 0 7.28 2.52 7.28 6.4 c0 3.78 -1.58 6.82 -7.28 6.82 l-7.18 0 z M15.860000000000001 7.800000000000001 l-1.82 0 l0 11.18 l1.82 0 c2.34 0 3.26 -1.66 3.26 -5.58 c0 -4.26 -0.92 -5.6 -3.26 -5.6 z M24.299999999999997 13.46 c0 -4.34 2.44 -6.96 6.8 -6.96 c1.76 0 2.8 0.42 3.52 1.14 l0.54 -0.96 l0.94 0 s-0.38 1.9 -0.38 2.76 l0 1.54 l-1.24 0 l0 -0.98 c0 -1.42 -1.3 -2.44 -3 -2.44 c-2.44 0 -3.2 2.06 -3.2 6 c0 3.8 0.68 5.66 3 5.66 c2.12 0 3.4 -1.36 3.72 -3.08 l1.2 0.2 c-0.52 2.24 -2 3.94 -5.4 3.94 c-4.5 0 -6.5 -2.92 -6.5 -6.82 z"></path>
        </g>
        <g id="SvgjsG1011" featurekey="text3" fill="white"
           transform="matrix(0.5240802025985131,0,0,0.5240802025985131,110.47591979740149,243.53483793336127)">
            <path d="M1 8.64 l1.28 0 l0 11.36 l-1.28 0 l0 -11.36 z M12.940000000000001 19.02 l0.04 0 l0 -0.84 l0 -9.54 l1.28 0 l0 11.36 l-2.22 0 l-5.96 -9.58 c-0.18 -0.26 -0.32 -0.54 -0.48 -0.84 l-0.06 0 c0 0.3 0.02 0.6 0.02 0.84 l0 9.58 l-1.28 0 l0 -11.36 l2.04 0 l6.1 9.54 c0.18 0.3 0.34 0.58 0.52 0.84 z M24.92 19.02 l0.04 0 l0 -0.84 l0 -9.54 l1.28 0 l0 11.36 l-2.22 0 l-5.96 -9.58 c-0.18 -0.26 -0.32 -0.54 -0.48 -0.84 l-0.06 0 c0 0.3 0.02 0.6 0.02 0.84 l0 9.58 l-1.28 0 l0 -11.36 l2.04 0 l6.1 9.54 c0.18 0.3 0.34 0.58 0.52 0.84 z M35.480000000000004 18.64 c0.18 -0.1 0.28 -0.18 0.36 -0.28 c0.1 -0.14 0.12 -0.24 0.18 -0.42 c0.26 -0.96 0.38 -2.28 0.38 -3.64 s-0.12 -2.72 -0.38 -3.62 c-0.08 -0.26 -0.12 -0.34 -0.18 -0.44 c-0.08 -0.08 -0.18 -0.16 -0.36 -0.26 c-0.62 -0.34 -1.62 -0.48 -2.64 -0.48 c-0.98 0 -1.98 0.16 -2.62 0.48 c-0.16 0.1 -0.26 0.18 -0.34 0.26 c-0.08 0.1 -0.12 0.18 -0.2 0.44 c-0.26 0.9 -0.38 2.26 -0.38 3.62 s0.12 2.68 0.38 3.64 c0.06 0.18 0.12 0.32 0.2 0.42 s0.18 0.18 0.32 0.26 c0.66 0.32 1.66 0.46 2.64 0.46 c1.02 0 2.02 -0.14 2.64 -0.44 z M36.44 19.56 c-1.16 0.5 -2.52 0.54 -3.6 0.54 c-0.98 0 -2.46 -0.04 -3.56 -0.54 c-0.26 -0.1 -0.4 -0.18 -0.5 -0.32 s-0.18 -0.28 -0.26 -0.52 c-0.42 -1.42 -0.46 -3.3 -0.46 -4.4 c0 -1.12 0.02 -2.98 0.46 -4.4 c0.08 -0.26 0.16 -0.38 0.26 -0.52 c0.14 -0.14 0.24 -0.2 0.5 -0.34 c1.06 -0.52 2.72 -0.54 3.56 -0.54 c0.94 0 2.5 0.02 3.6 0.54 c0.24 0.14 0.34 0.2 0.48 0.34 c0.1 0.14 0.18 0.26 0.26 0.52 c0.48 1.4 0.46 3.28 0.46 4.4 c0 1.08 0.02 2.98 -0.46 4.4 c-0.08 0.24 -0.16 0.38 -0.26 0.52 s-0.24 0.22 -0.48 0.32 z  M48.760000000000005 20 l-4.7 0 l0 -11.36 l4.7 0 c1 0 2.62 0 3.78 0.52 c0.26 0.14 0.4 0.22 0.5 0.32 c0.1 0.14 0.18 0.26 0.28 0.52 c0.52 1.32 0.48 3.28 0.48 4.32 c0 1.06 0.04 2.92 -0.48 4.32 c-0.08 0.22 -0.14 0.38 -0.28 0.52 c-0.1 0.1 -0.24 0.18 -0.5 0.32 c-1.18 0.48 -2.68 0.52 -3.78 0.52 z M45.34 19 l3.42 0 c1.06 0 2.18 -0.14 2.8 -0.44 c0.22 -0.1 0.32 -0.18 0.4 -0.28 s0.14 -0.22 0.2 -0.4 c0.3 -0.94 0.4 -2.24 0.4 -3.58 s-0.16 -2.66 -0.42 -3.54 c-0.08 -0.24 -0.12 -0.36 -0.18 -0.44 c-0.08 -0.1 -0.18 -0.18 -0.4 -0.28 c-0.62 -0.32 -1.74 -0.46 -2.8 -0.46 l-3.42 0 l0 9.42 z M56.900000000000006 13.6 l5.92 0 l0 1.02 l-5.92 0 l0 4.38 l6.5 0 l0 1 l-7.78 0 l0 -11.36 l7.52 0 l0 0.94 l-6.24 0 l0 4.02 z M64.88 20 l0 -11.36 l1.28 0 l0 10.32 l5.9 0 l0 1.04 l-7.18 0 z M73.3 8.64 l1.28 0 l0 11.36 l-1.28 0 l0 -11.36 z M80.88 20.1 c-0.38 0 -0.78 -0.06 -1.12 -0.24 c-0.06 -0.04 -0.12 -0.08 -0.18 -0.14 s-0.08 -0.06 -0.16 -0.2 c-0.1 -0.24 -0.18 -0.44 -0.28 -0.76 l-3.54 -10.12 l1.4 0 l3.42 10.2 c0.02 0.06 0.06 0.14 0.08 0.2 c0.02 0.04 0.04 0.06 0.06 0.08 c0 0 0.02 0 0.04 0.02 c0.08 0.02 0.18 0.04 0.28 0.04 c0.08 0 0.16 -0.02 0.24 -0.04 c0.02 -0.02 0.04 -0.02 0.06 -0.04 s0.02 -0.04 0.04 -0.06 c0.02 -0.06 0.06 -0.12 0.08 -0.2 l3.44 -10.2 l1.4 0 l-3.54 10.14 c-0.08 0.24 -0.18 0.5 -0.28 0.72 c-0.08 0.14 -0.1 0.16 -0.16 0.22 c-0.04 0.06 -0.1 0.1 -0.2 0.16 c-0.3 0.16 -0.74 0.22 -1.08 0.22 z M88.46 13.6 l5.92 0 l0 1.02 l-5.92 0 l0 4.38 l6.5 0 l0 1 l-7.78 0 l0 -11.36 l7.52 0 l0 0.94 l-6.24 0 l0 4.02 z M103.47999999999999 14.940000000000001 l0 0.06 c0.22 0.06 0.4 0.08 0.64 0.16 c0.24 0.06 0.32 0.1 0.46 0.18 c0.1 0.08 0.2 0.16 0.28 0.3 c0.34 0.62 0.46 1.32 0.46 2.1 l0 2.26 l-1.28 0 l0 -2.26 c0 -0.58 -0.06 -1.18 -0.2 -1.6 c-0.02 -0.1 -0.08 -0.18 -0.14 -0.24 c-0.02 -0.04 -0.08 -0.08 -0.18 -0.14 c-0.4 -0.16 -0.92 -0.24 -1.46 -0.24 l-4.34 0 l0 4.48 l-1.28 0 l0 -11.36 l4.84 0 c1.1 0 2.16 0.08 2.96 0.26 c0.18 0.06 0.28 0.08 0.42 0.16 c0.1 0.08 0.16 0.12 0.24 0.26 c0.48 0.68 0.42 2.04 0.42 2.56 c0 0.56 0.04 1.62 -0.42 2.4 c-0.08 0.16 -0.14 0.24 -0.24 0.3 c-0.08 0.06 -0.24 0.12 -0.42 0.18 c-0.26 0.08 -0.52 0.12 -0.76 0.18 z M103.74 10.3 c-0.06 -0.1 -0.08 -0.16 -0.14 -0.22 c-0.08 -0.06 -0.18 -0.1 -0.3 -0.14 c-0.48 -0.16 -1.16 -0.22 -1.86 -0.22 l-3.72 0 l0 4.78 l3.72 0 c0.7 0 1.38 -0.06 1.88 -0.24 c0.14 -0.04 0.22 -0.08 0.28 -0.12 c0.06 -0.06 0.08 -0.1 0.16 -0.24 c0.22 -0.54 0.28 -1.3 0.28 -1.8 c0 -0.48 -0.06 -1.22 -0.3 -1.8 z M111.32000000000001 14.34 l3.62 -5.7 l1.48 0 l-4.5 6.88 l0 4.48 l-1.28 0 l0 -4.48 l-4.48 -6.88 l1.48 0 l3.62 5.7 l0.06 0 z  M130.14 16.44 l1.26 0 c0 0.82 -0.1 1.82 -0.44 2.64 c-0.08 0.18 -0.14 0.3 -0.24 0.4 c-0.1 0.08 -0.22 0.14 -0.44 0.22 c-1.1 0.36 -2.5 0.4 -3.44 0.4 c-1.1 0 -2.56 -0.04 -3.78 -0.54 c-0.24 -0.1 -0.36 -0.18 -0.5 -0.32 c-0.1 -0.14 -0.18 -0.28 -0.28 -0.52 c-0.48 -1.42 -0.48 -3.32 -0.48 -4.4 c0 -1.12 0 -3 0.48 -4.4 c0.1 -0.26 0.18 -0.38 0.28 -0.52 c0.14 -0.14 0.26 -0.2 0.5 -0.34 c1.16 -0.52 2.82 -0.54 3.78 -0.54 c0.86 0 2.3 0 3.38 0.42 c0.22 0.08 0.34 0.16 0.44 0.26 c0.08 0.08 0.16 0.22 0.24 0.4 c0.32 0.78 0.42 1.72 0.44 2.52 l-1.26 0 c-0.02 -0.72 -0.12 -1.44 -0.36 -1.94 c-0.06 -0.1 -0.1 -0.18 -0.16 -0.24 s-0.16 -0.1 -0.32 -0.16 c-0.56 -0.22 -1.5 -0.28 -2.4 -0.28 c-1.06 0 -2.16 0.14 -2.82 0.48 c-0.18 0.1 -0.28 0.18 -0.36 0.26 c-0.08 0.1 -0.14 0.2 -0.22 0.46 c-0.3 0.88 -0.4 2.24 -0.4 3.6 s0.12 2.7 0.38 3.6 c0.08 0.24 0.16 0.36 0.24 0.46 s0.18 0.18 0.36 0.26 c0.66 0.32 1.76 0.46 2.82 0.46 c0.94 0 1.88 -0.1 2.46 -0.28 c0.16 -0.06 0.24 -0.08 0.32 -0.14 s0.12 -0.16 0.18 -0.26 c0.22 -0.54 0.32 -1.22 0.34 -1.96 z M140.24 18.64 c0.18 -0.1 0.28 -0.18 0.36 -0.28 c0.1 -0.14 0.12 -0.24 0.18 -0.42 c0.26 -0.96 0.38 -2.28 0.38 -3.64 s-0.12 -2.72 -0.38 -3.62 c-0.08 -0.26 -0.12 -0.34 -0.18 -0.44 c-0.08 -0.08 -0.18 -0.16 -0.36 -0.26 c-0.62 -0.34 -1.62 -0.48 -2.64 -0.48 c-0.98 0 -1.98 0.16 -2.62 0.48 c-0.16 0.1 -0.26 0.18 -0.34 0.26 c-0.08 0.1 -0.12 0.18 -0.2 0.44 c-0.26 0.9 -0.38 2.26 -0.38 3.62 s0.12 2.68 0.38 3.64 c0.06 0.18 0.12 0.32 0.2 0.42 s0.18 0.18 0.32 0.26 c0.66 0.32 1.66 0.46 2.64 0.46 c1.02 0 2.02 -0.14 2.64 -0.44 z M141.2 19.56 c-1.16 0.5 -2.52 0.54 -3.6 0.54 c-0.98 0 -2.46 -0.04 -3.56 -0.54 c-0.26 -0.1 -0.4 -0.18 -0.5 -0.32 s-0.18 -0.28 -0.26 -0.52 c-0.42 -1.42 -0.46 -3.3 -0.46 -4.4 c0 -1.12 0.02 -2.98 0.46 -4.4 c0.08 -0.26 0.16 -0.38 0.26 -0.52 c0.14 -0.14 0.24 -0.2 0.5 -0.34 c1.06 -0.52 2.72 -0.54 3.56 -0.54 c0.94 0 2.5 0.02 3.6 0.54 c0.24 0.14 0.34 0.2 0.48 0.34 c0.1 0.14 0.18 0.26 0.26 0.52 c0.48 1.4 0.46 3.28 0.46 4.4 c0 1.08 0.02 2.98 -0.46 4.4 c-0.08 0.24 -0.16 0.38 -0.26 0.52 s-0.24 0.22 -0.48 0.32 z M144.22 20 l0 -11.36 l1.92 0 l4.54 10 l0.06 0 l4.42 -10 l1.92 0 l0 11.36 l-1.3 0 l0 -9.3 c0 -0.22 0.02 -0.42 0.02 -0.66 l-0.02 0 c-0.1 0.24 -0.18 0.44 -0.26 0.66 l-3.98 9.3 l-1.66 0 l-4.06 -9.3 c-0.1 -0.22 -0.2 -0.42 -0.28 -0.66 l-0.04 0 l0 0.66 l0 9.3 l-1.28 0 z M166.45999999999998 10.32 c-0.06 -0.1 -0.08 -0.16 -0.14 -0.22 s-0.14 -0.1 -0.28 -0.16 c-0.5 -0.16 -1.18 -0.22 -1.88 -0.22 l-3.8 0 l0 4.92 l3.8 0 c0.7 0 1.38 -0.04 1.88 -0.22 c0.14 -0.04 0.22 -0.08 0.28 -0.14 s0.08 -0.12 0.14 -0.22 c0.3 -0.58 0.3 -1.34 0.3 -1.88 c0 -0.5 0 -1.28 -0.3 -1.86 z M167.61999999999998 9.46 c0.44 0.82 0.42 2.1 0.42 2.72 c0 0.66 0.02 1.86 -0.42 2.74 c-0.08 0.16 -0.14 0.24 -0.24 0.32 s-0.24 0.12 -0.42 0.18 c-0.8 0.24 -1.86 0.32 -2.96 0.32 l-3.64 0 l0 4.26 l-1.28 0 l0 -11.36 l4.92 0 c1.1 0 2.16 0.06 2.96 0.3 c0.16 0.06 0.32 0.12 0.42 0.2 s0.16 0.16 0.24 0.32 z M173.93999999999997 8.52 c0.34 0 0.74 0.08 1.06 0.24 c0.1 0.04 0.16 0.08 0.2 0.12 c0.06 0.06 0.1 0.14 0.16 0.24 c0.1 0.24 0.2 0.48 0.3 0.74 l3.7 10.14 l-1.4 0 l-0.94 -2.68 l-6.16 0 l-0.94 2.68 l-1.4 0 l3.7 -10.14 c0.1 -0.26 0.2 -0.52 0.32 -0.74 c0.06 -0.1 0.1 -0.18 0.16 -0.24 c0.04 -0.04 0.1 -0.08 0.18 -0.12 c0.3 -0.16 0.68 -0.24 1.06 -0.24 z M173.49999999999997 9.78 l-2.26 6.48 l5.4 0 l-2.26 -6.48 c-0.02 -0.08 -0.06 -0.16 -0.08 -0.22 l-0.04 -0.04 c-0.02 -0.02 -0.04 -0.02 -0.06 -0.04 c-0.08 -0.02 -0.18 -0.04 -0.26 -0.04 s-0.2 0.04 -0.26 0.06 c-0.02 0.02 -0.04 0.02 -0.06 0.04 l-0.04 0.04 c-0.02 0.06 -0.06 0.12 -0.08 0.2 z M189.03999999999996 19.02 l0.04 0 l0 -0.84 l0 -9.54 l1.28 0 l0 11.36 l-2.22 0 l-5.96 -9.58 c-0.18 -0.26 -0.32 -0.54 -0.48 -0.84 l-0.06 0 c0 0.3 0.02 0.6 0.02 0.84 l0 9.58 l-1.28 0 l0 -11.36 l2.04 0 l6.1 9.54 c0.18 0.3 0.34 0.58 0.52 0.84 z M196.47999999999996 14.34 l3.62 -5.7 l1.48 0 l-4.5 6.88 l0 4.48 l-1.28 0 l0 -4.48 l-4.48 -6.88 l1.48 0 l3.62 5.7 l0.06 0 z"></path>
        </g>
    </svg>
</svg>